<?xml version="1.0" encoding="utf-8"?>
<svg width="501px" height="229px" viewBox="0 0 501 229" version="1.1" xmlns:xlink="http://www.w3.org/1999/xlink" xmlns="http://www.w3.org/2000/svg">
  <g id="Group-6" transform="translate(0.48828125 0.48828125)">
    <g id="Group-10" transform="translate(0 0.70917934)">
      <path d="M257.345 149.426C391.175 132.994 496.377 92.8905 492.321 59.8531C488.264 26.8157 376.485 13.3546 242.655 29.7868C108.825 46.2191 3.62268 86.3222 7.67916 119.36C11.7357 152.397 123.515 165.858 257.345 149.426Z" id="Oval-20" fill="#FFFFFF" fill-rule="evenodd" stroke="#979797" stroke-width="0.9765625" />
      <path d="M255.972 140.006C381.664 124.573 480.795 89.5634 477.388 61.8097C473.98 34.0561 369.324 24.0683 243.632 39.5013C117.94 54.9343 18.8092 89.944 22.2169 117.698C25.6247 145.451 130.281 155.439 255.972 140.006Z" id="Oval-20-Copy" fill="#000002" fill-rule="evenodd" stroke="none" />
    </g>
    <path d="M248.272 227.291C314.692 227.291 370.956 183.717 390.153 123.539C390.594 122.156 388.151 123.801 383.557 125.209C375.613 127.644 360.538 131.883 337.792 136.61C306.676 143.078 262.029 149.611 246.794 151.426C231.015 153.306 198.833 155.028 171.062 155.985C154.699 156.548 142.484 157.495 133.435 157.172C127.126 156.947 120.77 154.711 122.301 157.172C148.597 199.439 194.908 227.291 248.272 227.291Z" id="Oval-19" fill="#6758FF" fill-rule="evenodd" stroke="none" />
    <path d="M258.021 215.196C287.955 215.196 309.337 197.581 309.337 194.338C309.337 191.095 287.955 202.283 258.021 202.283C228.088 202.283 198.242 199.04 198.242 202.283C198.242 204.328 213.382 210.434 231.868 212.871C242.696 214.298 246.964 215.196 258.021 215.196Z" id="Oval-24" fill="#FF7FA7" fill-rule="evenodd" stroke="none" />
  </g>
</svg>